<?xml version="1.0" encoding="UTF-8"?>
<svg xmlns="http://www.w3.org/2000/svg" viewBox="0 0 512 512" fill="#868572" width="512" height="512"><g id="Outline"><path d="M416,456a24,24,0,0,1-48,0,32.036,32.036,0,0,0-32-32H96V232H80V424H24a8,8,0,0,0-8,8v24a40.045,40.045,0,0,0,40,40H392a40.045,40.045,0,0,0,40-40V416H416ZM88,480H56a24.028,24.028,0,0,1-24-24V440H336a16.019,16.019,0,0,1,16,16,39.792,39.792,0,0,0,8.019,24ZM208,98.056v.536a18.092,18.092,0,0,0,7.562,14.692L256,142.169l40.439-28.885A18.094,18.094,0,0,0,304,98.592v-.536A18.056,18.056,0,0,0,270.921,88.04l-8.265,12.4a8,8,0,0,1-13.312,0l-8.265-12.4a18.077,18.077,0,0,0-21.988-6.649l-6.182-14.758a34.078,34.078,0,0,1,41.483,12.532L256,81.577l1.608-2.412A34.056,34.056,0,0,1,320,98.056v.536A34.124,34.124,0,0,1,305.739,126.3l-45.09,32.206a8,8,0,0,1-9.3,0L206.262,126.3A34.122,34.122,0,0,1,192,98.592v-.536a33.851,33.851,0,0,1,2.633-13.147l14.758,6.182A17.926,17.926,0,0,0,208,98.056ZM168,184H368v16H168Zm-16,16H136V184h16Zm16,32H368v16H168Zm-32,0h16v16H136Zm32,48H352v16H168Zm-32,0h16v16H136Zm32,48H328v16H168Zm-32,0h16v16H136Zm32,48H320v16H168Zm-32,0h16v16H136ZM484.311,147.29a23.828,23.828,0,0,0-32.524,8.348L432,189.012V120h16V104H432V88h56a8,8,0,0,0,8-8V56a40.045,40.045,0,0,0-40-40H120A39.887,39.887,0,0,0,83.263,40.143L58.754,31.156,53.246,46.178,80,55.988V104H64v16H80v48.013l-23.117,8.476,5.508,15.022L80,185.054V216H96V179.187l98.754-36.209-5.508-15.022L96,162.146V120h80V104H96V61.854l77.246,28.324,5.508-15.022-80.43-29.49A23.933,23.933,0,0,1,120,32H423.986A39.716,39.716,0,0,0,416,56v48H336v16h80v96l-35.525,59.92,13.763,8.16,59.231-99.9,13.349,7.856L370.784,354.01l-13.348-7.856,27.316-46.074-13.764-8.16L339.579,344.9a8.008,8.008,0,0,0-1.091,3.52h-.008l-2.46,35.021a8,8,0,0,0,12.31,7.288l29.6-19.052-.008-.012a7.943,7.943,0,0,0,2.559-2.635L416,309.118V400h16V282.131l60.689-102.363a23.67,23.67,0,0,0-8.378-32.478ZM432,56a24,24,0,0,1,48,0V72H432ZM353.1,368.629l.436-6.205,4.808,2.829ZM478.926,171.608l-3.948,6.66-13.35-7.856,3.922-6.614a7.8,7.8,0,0,1,10.645-2.719,7.669,7.669,0,0,1,2.731,10.529ZM48,120H16V104H48ZM37.246,40.311l-24-8.8,5.508-15.022,24,8.8Zm-18.492,167.2-5.508-15.022,32-11.733,5.508,15.021ZM464,104h32v16H464ZM338.754,90.178l-5.508-15.022,72-26.4,5.508,15.021Zm-21.508,52.8,5.508-15.022,80,29.333-5.508,15.022Z"/></g></svg>
